<svg class="diagram-root" style="background: #f5f6f6" xmlns="http://www.w3.org/2000/svg" xmlns:xlink="http://www.w3.org/1999/xlink"><style>.diagram-root { font-family: "Helvetica Neue", sans-serif; font-size: 12px; } .t { overflow: visible; } .t-bg { y: 40; fill: #fff;   } .th { fill: #005aa0;   } .tht { fill: #fff; font-size: 14px;  } .tf { fill: #323c46; overflow: visible; } .tf.pk { fill: #005aa0; font-weight: bold; } .tf.fk { font-weight: bold; } .ty { fill: #adb1b5; font-weight: normal; text-anchor: end; } .r { fill: transparent; stroke: #c3c3c3; stroke-width: 1; } .l { stroke: 1; } .i { fill: #c2c7ce; stroke: #c2c7ce; } .i.ix { fill: #afb3b6; stroke: #000; } .fa { fill: transparent; overflow: visible; } .fa .bg.hover { fill: #f7f7f7; } .c { cy: 12; r: 4; stroke: #d2d2dc; fill: #d2d2dc; } .hr { fill: transparent; stroke: #323c46; stroke-opacity: 0.035; stroke-width: 13; } .dc { stroke: #fa5a3c; fill: #fa5a3c; } .x { stroke: white; stroke-width: 1; } .hl .th { fill: #1b9bff; } .hl .tht {  } .fhl .bg { fill: #e7f4ff; } .fhls .bg {  } .r.hl { stroke: #1b9bff; } .dim { opacity: 0.25; }</style><g class="drawing-wrapper" transform="translate(-14.25, 120.25) scale(1,1)"><g class="rs"><path d="M 262.5 -33.25 m -1, 0 a 1,1 0 1,0 2,0 a 1,1 0 1,0 -2,0 M 262.5 -33.25 m -0.5, 0 a 0.5,0.5 0 1,0 1,0 a 0.5,0.5 0 1,0 -1,0  M262.5 -33.25 L262.5 -33.25 250.5 -33.25 M 262.5 -27.25 m -1, 0 a 1,1 0 1,0 2,0 a 1,1 0 1,0 -2,0 M 262.5 -27.25 m -0.5, 0 a 0.5,0.5 0 1,0 1,0 a 0.5,0.5 0 1,0 -1,0  M262.5 -27.25 L262.5 -27.25 255.5 -33.25 262.5 -39.25 M 262.5 -39.25 m -1, 0 a 1,1 0 1,0 2,0 a 1,1 0 1,0 -2,0 M 262.5 -39.25 m -0.5, 0 a 0.5,0.5 0 1,0 1,0 a 0.5,0.5 0 1,0 -1,0  M250.5 -33.25 Q 230.69 -33.25, 210.88 26.5 T 171.25 86.25 M 159.25 86.25 m -1, 0 a 1,1 0 1,0 2,0 a 1,1 0 1,0 -2,0 M 159.25 86.25 m -0.5, 0 a 0.5,0.5 0 1,0 1,0 a 0.5,0.5 0 1,0 -1,0  M159.25 86.25 L159.25 86.25 171.25 86.25 M165.25 92.25 L165.25 92.25 165.25 80.25" id="h1397587031" class="r"></path><path d="M 380.5 -8.25 m -1, 0 a 1,1 0 1,0 2,0 a 1,1 0 1,0 -2,0 M 380.5 -8.25 m -0.5, 0 a 0.5,0.5 0 1,0 1,0 a 0.5,0.5 0 1,0 -1,0  M380.5 -8.25 L380.5 -8.25 392.5 -8.25 M 380.5 -2.25 m -1, 0 a 1,1 0 1,0 2,0 a 1,1 0 1,0 -2,0 M 380.5 -2.25 m -0.5, 0 a 0.5,0.5 0 1,0 1,0 a 0.5,0.5 0 1,0 -1,0  M380.5 -2.25 L380.5 -2.25 387.5 -8.25 380.5 -14.25 M 380.5 -14.25 m -1, 0 a 1,1 0 1,0 2,0 a 1,1 0 1,0 -2,0 M 380.5 -14.25 m -0.5, 0 a 0.5,0.5 0 1,0 1,0 a 0.5,0.5 0 1,0 -1,0  M392.5 -8.25 Q 416.75 -8.25, 441 47.5 T 489.5 103.25 M 501.5 103.25 m -1, 0 a 1,1 0 1,0 2,0 a 1,1 0 1,0 -2,0 M 501.5 103.25 m -0.5, 0 a 0.5,0.5 0 1,0 1,0 a 0.5,0.5 0 1,0 -1,0  M501.5 103.25 L501.5 103.25 489.5 103.25 M495.5 109.25 L495.5 109.25 495.5 97.25" id="h2286254435" class="r"></path><path d="M 371.75 261.25 m -1, 0 a 1,1 0 1,0 2,0 a 1,1 0 1,0 -2,0 M 371.75 261.25 m -0.5, 0 a 0.5,0.5 0 1,0 1,0 a 0.5,0.5 0 1,0 -1,0  M371.75 261.25 L371.75 261.25 383.75 261.25 M 371.75 267.25 m -1, 0 a 1,1 0 1,0 2,0 a 1,1 0 1,0 -2,0 M 371.75 267.25 m -0.5, 0 a 0.5,0.5 0 1,0 1,0 a 0.5,0.5 0 1,0 -1,0  M371.75 267.25 L371.75 267.25 378.75 261.25 371.75 255.25 M 371.75 255.25 m -1, 0 a 1,1 0 1,0 2,0 a 1,1 0 1,0 -2,0 M 371.75 255.25 m -0.5, 0 a 0.5,0.5 0 1,0 1,0 a 0.5,0.5 0 1,0 -1,0  M383.75 261.25 Q 410.19 261.25, 436.63 182.25 T 489.5 103.25 M 501.5 103.25 m -1, 0 a 1,1 0 1,0 2,0 a 1,1 0 1,0 -2,0 M 501.5 103.25 m -0.5, 0 a 0.5,0.5 0 1,0 1,0 a 0.5,0.5 0 1,0 -1,0  M501.5 103.25 L501.5 103.25 489.5 103.25 M495.5 109.25 L495.5 109.25 495.5 97.25" id="h1139284389" class="r"></path><path d="M 266.75 286.25 m -1, 0 a 1,1 0 1,0 2,0 a 1,1 0 1,0 -2,0 M 266.75 286.25 m -0.5, 0 a 0.5,0.5 0 1,0 1,0 a 0.5,0.5 0 1,0 -1,0  M266.75 286.25 L266.75 286.25 254.75 286.25 M 266.75 292.25 m -1, 0 a 1,1 0 1,0 2,0 a 1,1 0 1,0 -2,0 M 266.75 292.25 m -0.5, 0 a 0.5,0.5 0 1,0 1,0 a 0.5,0.5 0 1,0 -1,0  M266.75 292.25 L266.75 292.25 259.75 286.25 266.75 280.25 M 266.75 280.25 m -1, 0 a 1,1 0 1,0 2,0 a 1,1 0 1,0 -2,0 M 266.75 280.25 m -0.5, 0 a 0.5,0.5 0 1,0 1,0 a 0.5,0.5 0 1,0 -1,0  M254.75 286.25 Q 233.88 286.25, 213 186.25 T 171.25 86.25 M 159.25 86.25 m -1, 0 a 1,1 0 1,0 2,0 a 1,1 0 1,0 -2,0 M 159.25 86.25 m -0.5, 0 a 0.5,0.5 0 1,0 1,0 a 0.5,0.5 0 1,0 -1,0  M159.25 86.25 L159.25 86.25 171.25 86.25 M165.25 92.25 L165.25 92.25 165.25 80.25" id="h1607168654" class="r"></path><path d="M 792 15.5 m -1, 0 a 1,1 0 1,0 2,0 a 1,1 0 1,0 -2,0 M 792 15.5 m -0.5, 0 a 0.5,0.5 0 1,0 1,0 a 0.5,0.5 0 1,0 -1,0  M792 15.5 L792 15.5 780 15.5 M 792 21.5 m -1, 0 a 1,1 0 1,0 2,0 a 1,1 0 1,0 -2,0 M 792 21.5 m -0.5, 0 a 0.5,0.5 0 1,0 1,0 a 0.5,0.5 0 1,0 -1,0  M792 21.5 L792 21.5 785 15.5 792 9.5 M 792 9.5 m -1, 0 a 1,1 0 1,0 2,0 a 1,1 0 1,0 -2,0 M 792 9.5 m -0.5, 0 a 0.5,0.5 0 1,0 1,0 a 0.5,0.5 0 1,0 -1,0  M780 15.5 Q 745.38 15.5, 710.75 59.38 T 641.5 103.25 M 629.5 103.25 m -1, 0 a 1,1 0 1,0 2,0 a 1,1 0 1,0 -2,0 M 629.5 103.25 m -0.5, 0 a 0.5,0.5 0 1,0 1,0 a 0.5,0.5 0 1,0 -1,0  M629.5 103.25 L629.5 103.25 641.5 103.25 M635.5 109.25 L635.5 109.25 635.5 97.25" id="h3177548053" class="r"></path><path d="M 629.5 128.25 m -1, 0 a 1,1 0 1,0 2,0 a 1,1 0 1,0 -2,0 M 629.5 128.25 m -0.5, 0 a 0.5,0.5 0 1,0 1,0 a 0.5,0.5 0 1,0 -1,0  M629.5 128.25 L629.5 128.25 641.5 128.25 M 629.5 134.25 m -1, 0 a 1,1 0 1,0 2,0 a 1,1 0 1,0 -2,0 M 629.5 134.25 m -0.5, 0 a 0.5,0.5 0 1,0 1,0 a 0.5,0.5 0 1,0 -1,0  M629.5 134.25 L629.5 134.25 636.5 128.25 629.5 122.25 M 629.5 122.25 m -1, 0 a 1,1 0 1,0 2,0 a 1,1 0 1,0 -2,0 M 629.5 122.25 m -0.5, 0 a 0.5,0.5 0 1,0 1,0 a 0.5,0.5 0 1,0 -1,0  M641.5 128.25 Q 677.63 128.25, 713.75 190.25 T 786 252.25 M 798 252.25 m -1, 0 a 1,1 0 1,0 2,0 a 1,1 0 1,0 -2,0 M 798 252.25 m -0.5, 0 a 0.5,0.5 0 1,0 1,0 a 0.5,0.5 0 1,0 -1,0  M798 252.25 L798 252.25 786 252.25 M792 258.25 L792 258.25 792 246.25" id="h1537058300" class="r"></path></g><g class="hrs"></g><g class="ts"><svg width="123" height="100" x="36.25" y="29.25" id="h475896179" class="t"><rect height="40" width="123" class="th"></rect><text x="13" y="25" class="tht">departments</text><rect height="60" width="123" class="t-bg" y="40"></rect><text x="13" y="61" class="tf fk">dept_no<tspan x="110" class="ty">str</tspan></text><text x="13" y="86" class="tf">dept_name<tspan x="110" class="ty">str</tspan></text></svg><svg width="105" height="100" x="792" y="-41.5" id="h2472833127" class="t"><rect height="40" width="105" class="th"></rect><text x="13" y="25" class="tht">salaries</text><rect height="60" width="105" class="t-bg" y="40"></rect><text x="13" y="61" class="tf fk">emp_no<tspan x="92" class="ty">int</tspan></text><text x="13" y="86" class="tf">salary<tspan x="92" class="ty">int</tspan></text></svg><svg width="96" height="100" x="798" y="195.25" id="h311790747" class="t"><rect height="40" width="96" class="th"></rect><text x="13" y="25" class="tht">titles</text><rect height="60" width="96" class="t-bg" y="40"></rect><text x="13" y="61" class="tf fk">title_id<tspan x="83" class="ty">str</tspan></text><text x="13" y="86" class="tf">title<tspan x="83" class="ty">str</tspan></text></svg><svg width="128" height="225" x="501.5" y="46.25" id="h1639608377" class="t"><rect height="40" width="128" class="th"></rect><text x="13" y="25" class="tht">employees</text><rect height="185" width="128" class="t-bg" y="40"></rect><text x="13" y="61" class="tf fk">emp_no<tspan x="115" class="ty">int</tspan></text><text x="13" y="86" class="tf fk">emp_title_id<tspan x="115" class="ty">str</tspan></text><text x="13" y="111" class="tf">birth_date<tspan x="115" class="ty">str</tspan></text><text x="13" y="136" class="tf">first_name<tspan x="115" class="ty">str</tspan></text><text x="13" y="161" class="tf">last_name<tspan x="115" class="ty">str</tspan></text><text x="13" y="186" class="tf">sex<tspan x="115" class="ty">str</tspan></text><text x="13" y="211" class="tf">hire_date<tspan x="115" class="ty">str</tspan></text></svg><svg width="105" height="100" x="266.75" y="204.25" id="h1090417462" class="t"><rect height="40" width="105" class="th"></rect><text x="13" y="25" class="tht">dept_emp</text><rect height="60" width="105" class="t-bg" y="40"></rect><text x="13" y="61" class="tf fk">emp_no<tspan x="92" class="ty">int</tspan></text><text x="13" y="86" class="tf fk">dept_no<tspan x="92" class="ty">str</tspan></text></svg><svg width="118" height="100" x="262.5" y="-90.25" id="h1676682957" class="t"><rect height="40" width="118" class="th"></rect><text x="13" y="25" class="tht">dept_manager</text><rect height="60" width="118" class="t-bg" y="40"></rect><text x="13" y="61" class="tf fk">dept_no<tspan x="105" class="ty">str</tspan></text><text x="13" y="86" class="tf fk">emp_no<tspan x="105" class="ty">int</tspan></text></svg></g></g><text class="qdbd-link" x="10" y="20">www.quickdatabasediagrams.com</text></svg>